<?xml version="1.0" encoding="UTF-8"?>
<svg viewBox="0 0 469.47012 298.79211" xmlns="http://www.w3.org/2000/svg">
 <g transform="translate(-373.81 -822.69)" fill-rule="evenodd">
  <path d="m799.15 1007.9c-42.675-6.6335-117.77-56.385-145.18-25.129-10.906 12.436 0.55187 39.146 15.98 44.366 31.436 10.636 61.374 24.055 93.947 28.76 25.286 1.4699 46.945 3.4959 68.293-13.246 18.52-4.8594 3.3519-47.285-10.231-72.385-3.3178-6.1308 3.7608 25.007 1.1538 18.585-8.7386-21.525-66.966-48.666-96.598-59.613-14.012 4.6539 67.546 59.391 72.638 78.662z" fill="#eabb00" stroke="#806600" stroke-linecap="round" stroke-linejoin="round" stroke-width="5"/>
  <path d="m636.72 943.11c58.59-57.26 14.385-113.72-52.873-117.81-39.337-2.3943-92.596 36.629-121.92 40.685 0 0-27.947 6.1416-40.082 5.5436-11.4-0.56179-18.718-13.761-27.675-7.0398-5.805 4.3559-1.5446 12.257-3.9294 18.909-2.1814 6.0844-13.376 16.823-11.045 22.857 4.604 11.914 39.131 24.497 52.527 8.9337 7.9773-9.2675 17.427-7.8566 24.435-6.633 43.6 7.613 82.53 48.289 131.81 44.702" fill="#fc0" stroke="#806600" stroke-linecap="round" stroke-linejoin="round" stroke-width="5"/>
  <path d="m584.75 847.22c-63.885 0.82266-195.7 88.621-195.88 43.123-3.5335 5.0647-8.1747 11.501-6.75 15.188 4.604 11.914 37.385 23.251 50.781 7.6874 7.9773-9.2674 17.43-7.8485 24.438-6.625 43.6 7.613 82.535 48.306 131.81 44.719l66.344-84.75c-20.501-16.778-47.345-19.64-70.748-19.342z" fill="#eabb00"/>
  <path d="m402.33 990.63c4.3591 41.934 41.982 122.11 121.01 120.61 66.721-1.2595 110.21-5.8898 149.69 1.7375 41.2 7.959 53.375 1.9412 91.334-3.7463 14.754-2.2106 29.337-13.041 32.171-27.688 3.3735-17.437 21.002-11.64 23.385-22.641 4.7986-22.153-0.47843-58.121-14.538-74.145-36.255-41.32-88.59-92.025-143.93-113.4-93.657-36.173-148.89 25.696-209.35 47.976-10.617 3.9125-29.164 8.342-37.4 16.101-12.27-3.7626-39.796 11.826-38.338 19.72 3.5446 19.192 14.561 34.346 25.964 35.469z" fill="#fc0" stroke="#806600" stroke-linecap="round" stroke-linejoin="round" stroke-width="5"/>
  <path d="m493.51 905.37c32.928 64.157 89.971 61.694 97.557 114.76 3.0729 21.498-16.225 63.242-63.253 76.852 68.965 14.178 97.581-43.834 87.459-84.516-16.062-64.556-67.39-78.077-121.76-107.1z" fill="#eabb00"/>
  <path d="m508.84 1090.7c86.935 19.244 116.14-51.293 82.76-112.63-19.523-35.875-86.156-60.69-106.27-84.154 0 0-21.329-21.079-27.486-32.067-5.7835-10.323 2.7166-24.165-8.6412-28.25-7.3603-2.6472-12.515 5.5337-20.164 7.1793-6.9962 1.5052-23.414-2.2857-27.861 3.1525-8.781 10.738-1.6152 48.118 20.612 51.129 13.236 1.7931 17.131 10.881 19.85 17.72 11.876 29.863 8.6298 42.413 15.278 76.077 2.8245 14.303-18.567-7.8507-34.061-3.7028" fill="#fc0" stroke="#806600" stroke-linecap="round" stroke-linejoin="round" stroke-width="5.1862"/>
  <path d="m379.96 951.79c6.8158-10.014 23.091-16.784 37.188-13.674 6.6882-10.034 16.786-10.114 26.124-13.515 6.5665 22.217 7.3975 46.627 10.792 66.369-9.6638-3.5628-17.278-8.3552-31.268-9.3226-1.8897-8.6478-6.4187-13.193-14.112-14.575-2.9269-7.3129-3.5363-11.131 2.1903-17-8.0428-3.6034-19.99-7.6662-30.914 1.7174z" fill="#eabb00"/>
  <path d="m466.44 876.73c32.928 64.157 93.466 88.282 106.75 140.22 3.78 14.78 11.352 57.939-41.333 74.378 47.045 3.5711 73.337-29.635 70.135-71.434-6.1628-80.112-87.543-80.906-135.55-143.16z" fill="#fd5"/>
  <path d="m615.62 1106.5c-14.816-2.943-17.58-19.431-3.6195-32.711 8.9542-8.5178 7.2238-16.848 35.204-23.591 36.405-8.7733 90.181 5.9915 126.52 4.1274 18.373-0.9425 16.088-20.397 7.8183-41.36-7.3266-18.572-35.431-37.359-27.011-35.453 24.469 6.8484 57.741 32.906 62.879 59.953 1.7367 49.591-116.01 68.734-201.79 69.034z" fill="#eabb00"/>
  <path d="m766.52 1063.1c-59.433 0.4195-126.02-31.611-151.45 21.593-7.1336 14.923 15.374 23.703 31.14 27.791 40.451 10.488 66.188 5.5851 99.015 3.2328 25.017-3.9584 50.459-3.0482 67.744-23.959 29.961-17.358-7.3443-55.953-32.77-73.637-5.7229-3.9803 6.8615 30.721 2.9444 25.003-13.13-19.165-33.358-14.099-82.623-41.184-12.696 7.5361 23.443 43.934 65.998 61.161z" fill="#fc0" stroke="#806600" stroke-linecap="round" stroke-linejoin="round" stroke-width="5"/>
  <path d="m633.13 1066.1c-9.0548 6.6168-22.076 25.35-13.138 31.441 22.813 15.546 48.76 19.358 77.239 18.35 32.349-1.1598 57.585-2.1633 90.68-9.8038 0 0-102.19 16.138-148.85-12.642-13.473-8.3112-5.9329-27.345-5.9329-27.345z" fill="#fd5"/>
  <path d="m700.28 1004.5c-2.6954 18.678 42.195 47.746 81.117 62.408-6.9179-8.0093-11.087-12.483-21.077-20.492-13.876-11.126-45-17.311-60.041-41.915z" fill="#eabb00"/>
  <path d="m781.81 1022.5c15.429 12.872 26.553 19.068 39.787 46.519 1.3119 10.187-3.9278 17.712-11.624 21.719 0 0 9.2124-17.811 3.0592-24.612-10.611-11.728-31.222-43.625-31.222-43.625z" fill="#fd5"/>
  <path d="m539.48 881.21c25.347-20.991 72.023-22.285 114.47-10.679 44.647 15.453 79.77 46.252 112.35 76.629 32.19 33.019 45.921 44.557 50.177 71.708-35.74-45.64-92.671-88.105-132.48-110.43-53.551-36.952-105.69-34.869-144.51-27.232z" fill="#fd5"/>
  <path d="m433.75 862.36c-0.33536-19.078-22.728-22.637-31.25-16-9.722 25.441 8.5305 48.224 24 47.5-11.169-6.7014-25.469-34.151-14-42 4.4411-3.0396 16.742 2.4959 21.25 10.5z" fill="#eabb00"/>
 </g>
</svg>
