<?xml version="1.0" encoding="UTF-8"?>
<svg viewBox="0 0 336.97321 190.95189" xmlns="http://www.w3.org/2000/svg" xmlns:xlink="http://www.w3.org/1999/xlink">
 <defs>
  <filter id="l">
   <feGaussianBlur stdDeviation="2.322"/>
  </filter>
  <filter id="k">
   <feGaussianBlur stdDeviation=".442"/>
  </filter>
  <linearGradient id="a">
   <stop stop-color="#c5452a" offset="0"/>
   <stop stop-color="#c5452a" stop-opacity="0" offset="1"/>
  </linearGradient>
  <linearGradient id="i" x1="261.39" x2="233.36" y1="-205.41" y2="-277.32" gradientTransform="matrix(2.0858 .50784 0 2.1467 -91.891 1000.3)" gradientUnits="userSpaceOnUse">
   <stop stop-color="#8c0000" offset="0"/>
   <stop stop-color="#a5251f" offset=".486"/>
   <stop stop-color="#b53524" offset="1"/>
  </linearGradient>
  <linearGradient id="j" x1="527.3" x2="519.51" y1="605.67" y2="589.77" gradientUnits="userSpaceOnUse" spreadMethod="reflect">
   <stop stop-color="#ebae80" stop-opacity="0" offset="0"/>
   <stop stop-color="#fffaec" offset="1"/>
  </linearGradient>
  <linearGradient id="h" x1="311.53" x2="262.79" y1="551.07" y2="517.58" gradientUnits="userSpaceOnUse">
   <stop stop-color="#babdb6" offset="0"/>
   <stop stop-color="#eeeeec" stop-opacity="0" offset="1"/>
  </linearGradient>
  <radialGradient id="g" cx="219.89" cy="-252.31" r="54.632" gradientTransform="matrix(.42703 .6981 -1.0345 .63281 22.991 525.7)" gradientUnits="userSpaceOnUse">
   <stop stop-color="#efa875" offset="0"/>
   <stop stop-color="#efa875" stop-opacity="0" offset="1"/>
  </radialGradient>
  <radialGradient id="b" cx="264.99" cy="-306.27" r="17.693" gradientTransform="matrix(2.0838 .51586 -.18047 .72901 -111.89 722.12)" gradientUnits="userSpaceOnUse" xlink:href="#a"/>
  <radialGradient id="c" cx="262.69" cy="-308.25" r="17.693" gradientTransform="matrix(2.14 .16958 -.05933 .74867 -203.91 801.23)" gradientUnits="userSpaceOnUse" xlink:href="#a"/>
  <radialGradient id="d" cx="264.99" cy="-306.27" r="17.693" gradientTransform="matrix(2.1467 -2.0396e-7 7.1355e-8 .75102 -170.82 788.42)" gradientUnits="userSpaceOnUse" xlink:href="#a"/>
  <radialGradient id="e" cx="264.99" cy="-306.27" r="17.693" gradientTransform="matrix(2.1467 0 0 .75102 -100.24 839.27)" gradientUnits="userSpaceOnUse" xlink:href="#a"/>
  <radialGradient id="f" cx="264.99" cy="-306.27" r="17.693" gradientTransform="matrix(2.1467 0 0 .75102 -172.34 824.09)" gradientUnits="userSpaceOnUse" xlink:href="#a"/>
 </defs>
 <g transform="translate(-271.51 -487.89)">
  <path transform="matrix(2.1467 0 0 2.1467 -306.34 -556.46)" d="m292.62 552.02s-27.406-13.322-18.214-21.1 18.385-7.7782 18.385-7.7782l83.61 45.711-83.781-16.833z" fill="url(#h)" filter="url(#k)"/>
  <path transform="matrix(2.1467 0 0 2.1467 -311.34 -559.46)" d="m358.61 493.5c-13.652 1.1026-27.212 5.6016-38.558 13.327-6.4828 5.6164-12.845 12.005-15.682 20.336-2.7679 8.0212-18.412 10.595-14.019 18.497 3.1218 4.4443 9.2005 4.2428 13.839 6.0798 27.158 7.7134 54.569 14.723 82.404 19.518 5.7856 0.2049 10.017-4.353 14.831-6.896 7.9921-4.6199 15.321-10.959 19.703-19.178 3.2933-5.1857 2.2924-14.347-5.1676-14.81-12.895-0.0909-22.898-9.7576-31.815-17.92-9.6797-8.7878-5.1872-12.415-17.45-17.739-2.575-0.9784-5.3362-1.3959-8.0865-1.2149z" fill="#eeeeec" filter="url(#l)"/>
  <path d="m340.34 538.52c13.999-20.492 65.146-37.268 89.938-36.147 39.179 1.7718 82.758 83.898 128.27 84.721 16.183 0.2925 22.203 14.592 9.9417 34.201-10.162 16.251-45.314 44.456-58.516 42.076-59.993-10.815-95.309-47.208-153.31-64.133-23.073-6.7328-29.876-40.871-16.318-60.718z" fill="#fffaec"/>
  <path d="m425.33 502.36c-26.098 0.9944-71.872 16.948-84.996 36.158-0.3778 0.553-0.7271 1.1028-1.0733 1.6771 15.702-12.346 38.724-17.458 58.363-16.57 16.958 0.7669 33.492 17.424 50.447 36.158v-51.051c-2.3869-1.543-4.7689-2.8572-7.1109-4.0251-3.5909-1.3403-7.1448-2.1887-10.666-2.3479-1.5495-0.07-3.2243-0.0663-4.9642 0zm146.51 92.777v17.912c2.7281-7.3297 2.5329-13.512 0-17.912z" fill="url(#g)"/>
  <path d="m535.95 580.58-40.854 24.419c7.6067 4.6981 15.45 7.6656 23.546 7.9159l40.854-24.486-3.5555-1.4759c-6.6285-0.5781-13.323-2.878-19.991-6.373z" fill="url(#j)"/>
  <path d="m328.58 551.42c13.999-20.492 44.275-28.919 69.066-27.798 39.179 1.7718 75.927 88.452 121.44 89.275 29.595 0.5349 12.433 58.379-16.697 53.128-19.854-3.5791-39.333-7.5905-58.614-11.97-38.978-8.853-77.142-19.209-115.95-30.533-23.073-6.7328-12.799-52.256 0.759-72.102z" fill="url(#i)"/>
  <path d="m394.43 521.98c-23.805 0.0771-48.933 5.6603-62.057 24.871l-2.7819 4.6166c3.8767-6.4333 38.89-31.402 70.361-22.536 21.698 0.9812 42.414 27.544 64.31 51.192 17.641 19.052 36.048 36.212 56.353 36.579 9.8022 0.1771 12.902 6.6508 13.71 15.027 0.8656-10.808-3.4236-19.354-15.228-19.568-45.508-0.8225-80.725-88.276-119.9-90.048-1.5495-0.07-3.176-0.1393-4.763-0.1342z" fill="#fdefdf"/>
  <path d="m459.72 613.81c-9e-3 -29.154-90.53-32.853-101.19-33.005 6.0005 8.8846 14.525 23.208 29.32 27.256 3.9961 1.0934 14.976 6.6277 19.187 7.5297 20.429 4.3755 39.668-6.3789 52.68-1.7809z" fill="url(#f)"/>
  <path d="m506.6 622.55c-9e-3 -29.154-65.306-26.413-75.964-26.565 5.9699 8.8393 4.953 21.814 15.043 24.681 16.079 4.5682 45.175-3.6795 60.921 1.8843z" fill="url(#e)"/>
  <path d="m449.97 593.16c-4e-3 -12.679-15.256-29.144-32.156-35.832-21.961-8.6901-51.738-12.114-57.761-12.2 15.483 22.925 62.144 41.123 89.917 48.032z" fill="url(#d)"/>
  <path d="m418.15 633.12c2.2944-29.063-72.676-35.246-83.288-36.239 13.624 24.076 58.456 25.188 83.288 36.239z" fill="url(#c)" opacity=".718"/>
  <path d="m521.06 658.5c4.197-16.975 13.294-28.332-13.304-38.933-13.52-5.3887-30.667-5.441-39.892-5.6396-2.8843-0.062-8.0302 4.7949-5.977-0.3967-21.346 43.289 28.906 34.266 59.173 44.969z" fill="url(#b)"/>
  <g transform="matrix(2.1467 0 0 2.1467 -91.891 1000.3)" fill="#fce9d3">
   <path d="m267.1816-180.004c-1.7562-2.1448-4.8365-1.2793-7.2497-1.5467-3.075.5107-5.38-2.0911-8.4533-1.5412-3.4547-1.387-6.8494-2.6554-10.4827-3.3878 .2532-2.2863 7.2492.5411 5.4078-3.7821-1.8215-1.8626-2.214-5.0355-4.9866-6.0089-2.4848-.45-3.3794-3.1441-5.7768-3.7405-2.2885-.8935-3.3363-3.6174-5.8754-4.1284-3.0242-.295-5.0134-2.5675-7.8549-3.3138-2.2869-1.4 2.8139-1.627 3.9668-1.2165 3.0921,1.601 5.8897,3.2384 9.0771,4.3927 2.8668-.0154 4.2333,3.0815 6.8727,3.7489 2.6161,2.1246 4.7685,4.836 7.8685,6.2894 2.9105,2.2351 5.0407,5.6955 8.616,6.9075 2.3001,2.125 5.4253,2.4786 8.2131,3.8397 1.5516.549 4.537,4.8338 1.7554,4.6715-.4536-.2997-.8282-.7133-1.098-1.1838z"/>
   <path d="m189.7799-185.5308c2.026-1.9371 3.6925-4.2598 5.9834-5.8999 2.2384-.6645 4.274-1.7971 6.3491-2.8692 2.0791-.4347 4.2754-.0552 6.4026-.1887 1.8448.135 5.9441-.9099 4.5843,2.2881-2.1557,1.484-4.9939.4786-7.4501.7766-2.4855.1116-5.155-.5719-7.3727.9435-2.0639.6374-3.1495,2.6921-3.8107,4.571-.5036,2.7141 2.4825,2.2062 4.1778,2.0812 3.003.8496-.1163,3.8341-2.0695,3.387-2.3824.6602-2.9217-2.7672-5.0571-2.7449-1.5019.2208-3.0999-.8835-1.7372-2.3446z"/>
   <path d="m288.8531-164.9221c-1.4898-2.0763-3.9797-3.1-6.4757-3.0869-2.4382-.8605-4.0114-3.2264-6.5792-3.8841-2.2579-.5536-3.7875-2.3132-5.9028-3.1355-2.6974-2.598-3.3775,2.8696-.4969,2.9269 2.3029-.6481 4.9469.6284 6.9268,1.9253 1.5082,1.9777 2.5371,4.7811 4.8072,5.8597 2.731.4211 4.1213,3.4305 6.2268,4.0897 1.6714-.8565 2.0179-3.0464 1.4937-4.695z"/>
   <path d="m205.061-204.8737c2.0965-1.2858 4.8801-.7767 6.9933.2284 2.3774,1.0319.6951,3.3183-1.3427,2.2451-2.0275-.4677-3.7278-1.7472-5.6507-2.4734z"/>
   <path d="m244.3054-172.3468c2.8556-2.0921 6.2243-3.673 9.7991-3.8852-4.1028-.4598-6.2676,4.3644-10.2291,4.4448-.0622-.3279.2157-.4018.43-.5596z"/>
   <path d="m216.3747-181.1856c-1.9231-.6223 1.6273.4929 2.1861.499 2.0621-.2091 3.3775,1.6762 5.1189,2.5054 .8453.7679 3.8525,1.5295 3.5824.4698-3.6674-1.5172-8.2726-.7333-11.2884-3.7209l.401.2466z"/>
   <path d="m203.2932-185.4597c1.733-.64 4.034-.3866 5.7808.1137 1.9652.5137.5746,1.6517-1.1099,1.1175-1.676-.2328-3.0815-.8697-4.6709-1.2312z"/>
   <path d="m222.1641-189.8213c.0493-.3035-.9427-.7195-2.2043-.9244-1.5293-.2484-2.2342-.7405-2.1147-1.4763 .1494-.9197.9439-.9795 4.7672-.3586 2.5234.4098 4.5476.9934 4.4983,1.297s1.4588.8033 3.3513,1.1107c3.8483.625 4.1472.9505 1.5719,1.7118-1.9974.5905-10.0072-.5134-9.8697-1.3602z"/>
  </g>
  <path d="m470.54 527.76c4.1611-1.5777-2.4988 2.0989-3.4072 2.8852-2.1817 2.1622-7.3119 6.2799-8.7004 5.3144-3.8006 1.0175-6.4561 4.6298-8.0974 7.9419-1.0252 4.0044 4.9998-0.507 7.1523-0.4481 3.1931-0.8345 6.2992-2.1949 9.0693-4.0027 1.5433-3.0994 4.7332-5.6636 8.0286-5.835 4.8373-2.0462-0.2827-7.7056-4.0452-5.8559v2e-4z" fill="#fdf0dd"/>
  <path d="m454.4422,557.2766c3.2152-1.4754 5.4065-4.4502 8.3908-6.3149 2.1433-1.3584 5.2875-7.8295 6.8712-2.5994-1.255,2.697-6.0175,1.2432-7.6011,4.5169-2.5039,1.8897-5.484,7.43-8.4404,5.8-.3395-.5795-.1007-1.619.7795-1.4027z" fill="#fdf0dd"/>
  <path d="m484.3617,574.4106c-4.8848,1.3778-8.2886,6.2488-10.398,10.7335-.9803,4.0339 3.1034,1.7695 6.373.3354-.0584-.3422-.0796-.8054.067-1.4088 2.1094-4.4847 5.5133-9.3557 10.398-10.7335 26.6763-21.6573 3.5214-1.779-6.44,1.0733z" fill="#fdf0dd"/>
 </g>
</svg>
