<?xml version="1.0" encoding="UTF-8"?>
<svg width="192.56pt" height="222.03pt" version="1.1" viewBox="0 0 192.5631 222.03459" xmlns="http://www.w3.org/2000/svg">
 <g transform="translate(-303.99 -217.74)">
  <path d="m371.4 261.18c-4.4076 2.4894-6.2056 7.9052-5.947 12.732-0.054 7.59-2.692 15.184-7.6893 20.94-11.972 0.50419-8.6972 1.6548-1.6063 8.293 4.3111-2.3912 7.1652-6.5463 10.887-9.6502 2.699-1.9214 6.3443-2.8393 7.9787-5.9826 2.2149-3.8278 3.0593-8.4835 6.3333-11.661 0.69522-0.32068 2.4171-1.1202 1.4149-2.1377-1.3509 0.0987-2.1365 1.5515-2.9082 2.5195-2.8768 3.747-3.3056 8.7623-6.0677 12.56-2.7155 3.0565-7.1456 3.9117-9.6615 7.2072-16.116 3.9969-14.39 7.6884-4.9075 3.9657 3.7196-3.2368 6.6932-7.2513 10.542-10.346 3.3157-3.8428 3.4059-9.1701 4.3633-13.904 0.63326-3.7744 2.0789-7.6774 1.0013-11.504-0.52503-1.5029-1.6782-2.949-3.3184-3.248z" color="#000000" fill="#5e6717" fill-rule="evenodd"/>
  <path d="m321.13 228.71c-6.8515-4.0336-10.203-9.594-16.19-10.493l10.78 17.869 170.02 202.77 6.258 0.92444 4.561-7.3174z" fill="#deba9e"/>
  <path d="m303.99 217.74 19.767 28.748 161.98 192.36 7.0351 0.70178z" fill="#cd946b" fill-opacity=".47843"/>
  <path d="m430.27 361.01c-23.605 17.704-6.602 15.111-0.98401 31.965 3.803 11.408 29.655 19.928 34.915 5.901 6.703-17.876 17.377-37.315-9.343-32.456-16.228 2.95-12.786-14.261-24.588-5.41z" fill="#5e2f18"/>
  <path d="m434.55 341.87c-5.638 3.719-41.622 25.793-26.257 35.57 8.17 5.199 26.343 9.049 34.665 3.105 1.843-1.317 4.991-7.275 4.139-9.831-0.716-2.147-4.51 5.158-2.409 4.318 3.557-1.423 5.092-2.344 8.359-5.611 6.427-6.427-7.767-17.604-9.83-21.73-1.29-2.58-8.614-5.856-8.667-5.821z" fill="#6d781b"/>
  <path d="m404.43 340.03c-23.605 17.703-4.943 10.908 0.675 27.761 3.803 11.408 25.266 9.371 30.526-4.656 6.703-17.876 25.174-26.048-0.178-29.928-16.304-2.496-19.221-2.029-31.023 6.823z" fill="#5e2f18"/>
  <path d="m412.22 313.85c-5.639 3.718-41.622 25.792-26.257 35.57 8.17 5.199 26.342 9.049 34.665 3.104 1.843-1.316 4.991-7.274 4.139-9.83-0.716-2.147-4.511 5.158-2.409 4.317 3.557-1.422 5.092-2.344 8.359-5.611 6.427-6.426-7.767-17.603-9.831-21.73-1.29-2.58-8.613-5.855-8.666-5.82z" fill="#ff8303"/>
  <path d="m381.07 310.72c-23.605 17.703-4.943 10.908 0.675 27.761 3.803 11.408 25.266 9.371 30.526-4.656 6.703-17.876 25.174-26.048-0.178-29.928-16.304-2.496-19.221-2.029-31.023 6.823z" fill="#5e2f18"/>
  <path d="m389.37 286.35c-5.639 3.719-41.623 25.793-26.258 35.571 8.17 5.199 26.343 9.049 34.665 3.104 1.843-1.316 4.991-7.274 4.139-9.83-0.716-2.148-8.569-1.229-6.467-2.07 3.556-1.422 9.151 4.043 12.417 0.776 6.427-6.427-7.767-17.603-9.83-21.73-1.29-2.58-8.613-5.856-8.666-5.821z" fill="#ff1603"/>
  <path d="m393.57 290.61c-1.3582 0.50803-2.4168 1.5932-3.272 2.7327-1.4352 2.0003-2.0548 4.4519-2.3371 6.8648-0.51392 3.8282-0.78735 7.7387-2.1038 11.402-1.1017 3.1167-2.8714 5.9366-4.7286 8.651-0.99261 1.045-2.5544 1.1595-3.9062 1.0137-1.7597-0.20578-3.5156-0.48157-5.2891-0.53515-0.85991 0.0801-1.6861 0.77898-1.7324 1.6719 0.13751 0.84365 0.83748 1.4079 1.3574 2.0274 0.67637 0.65155 1.4129 1.2351 2.1367 1.832 1.3376 0.67112 2.6878 1.3156 4.0508 1.9336 1.9045-0.15499 3.4615-1.406 4.8652-2.5918 3.801-3.3476 7.6379-6.6797 11.846-9.5137 1.3908-1.0479 1.9786-2.7542 2.8398-4.2012 0.54319-1.009 1.2097-2.154 0.86914-3.3398-0.0374-0.28476-0.48838-0.94604-0.30284-0.29621 0.15181 1.3908-0.59743 2.6497-1.126 3.881-0.82805 1.8053-2.0201 3.4895-3.6738 4.625-3.493 2.7148-7.2528 5.1176-10.394 8.2589-0.563 0.4974-1.7968 0.31174-1.7285-0.59961 0.0351-0.74836 0.79436-1.1473 1.3941-1.4233 1.5242-0.71678 3.1571-1.2941 4.4296-2.4388 1.5466-1.2902 2.8671-2.8218 4.2217-4.3052 0.64315-0.73468 1.2396-1.5089 1.812-2.2996 0.96076-2.358 1.7309-4.8047 2.1836-7.3116 0.12184-1.2218-0.34212-2.4125-0.32639-3.6325-9e-3 -0.18769-0.0227-0.55434 0.0217-0.67505-0.0316 0.37492 0.12431 0.74013 0.35938 1.0254-0.14169-0.49105-0.3968-1.0347-0.12891-1.5312 0.41712 0.65814 0.72325 1.3929 1.2569 1.9776 1.1032 1.4416 2.274 2.8424 3.1653 4.431 0.91453 1.4422 1.859 2.8888 3.07 4.1031 1.1398 1.0531 2.6587 1.6032 4.1884 1.7418 0.61602 0.0561 1.3513 0.22312 1.8839-0.17934 0.63068-0.51983 0.68576-1.6953-0.0762-2.123-0.77736-0.43914-1.653-0.01-2.4629 0.0723-1.0704 0.0101-1.8462-0.87944-2.3767-1.7098-1.1552-1.6074-2.175-3.3057-3.2054-4.9933-0.76239-1.1576-1.6843-2.2164-2.3085-3.461-0.14962-0.51879-0.1876-1.1775-0.90626-1.1992-0.40825-0.092-0.91173 0.062-1.2324 0.1914 0.80992-0.27934 1.1159-1.1028 1.4153-1.822 0.21376-0.39728 0.61333-0.64281 0.90504-0.97682-0.91028-5e-3 -1.4836-0.95171-1.489-1.7831-0.18131-1.693-0.51017-3.5252-1.7575-4.7827-0.37663-0.37028-0.83536-0.7932-1.4079-0.71155zm1.5898 10.617c0.23958-0.23142 0.20409-0.17907 0 0zm-0.46679 1.0195c-0.022-0.0528 0.0674-0.20645 0 0zm6.957 9.8047-0.0391-0.0254 0.0391 0.0254zm0.38867 0.32031-0.11524-0.0898 0.11524 0.0898zm0.9707 0.67578-0.12488-0.0761-1.2e-4 -7e-5 0.12489 0.0761 1.1e-4 7e-5zm2.1465 0.89649-0.12891-0.0469 0.12891 0.0469z" color="#000000" fill="#b80e00" fill-rule="evenodd"/>
  <path d="m349.94 273.13c-23.605 17.703 0.571 22.629 6.188 39.483 3.803 11.408 27.853 12.475 33.113-1.552 6.703-17.876 17.074-40.874-8.278-44.754-16.304-2.496-19.221-2.029-31.023 6.823z" fill="#5e2f18"/>
  <path d="m338.47 286.31c-0.683 8.733 0.52799-2.123 0.18899-2.462-0.089-0.089-0.353-0.123-0.37799 0-2.03 10.148 16.337 22.699 25.749 18.934 6.345-2.538 17.623-27.874 19.691-34.081 6.177-18.528-43.789-1.075-45.251 17.609z" fill="#6d781b"/>
  <path d="m371.4 261.18c-4.4076 2.4894-6.2056 7.9052-5.947 12.732-0.054 7.59-2.692 15.184-7.6893 20.94-2.5665 2.955-8.6058-2.0186-11.533 0.56335-3.22 2.2958 7.3404 9.2892 9.9269 7.7296 4.3111-2.3912 7.1652-6.5463 10.887-9.6502 2.699-1.9214 6.3443-2.8393 7.9787-5.9826 2.2149-3.8278 3.0593-8.4835 6.3333-11.661 0.69522-0.32068 3.0621-5.9573 2.0599-6.9748-1.3509 0.0987-2.7814 6.3886-3.5532 7.3566-2.8768 3.747-3.3056 8.7623-6.0677 12.56-2.7155 3.0565-7.1456 3.9117-9.6615 7.2072-10.175 1.4296-5.6817 5.3692-4.9075 3.9657 3.7196-3.2368 6.6932-7.2513 10.542-10.346 3.3157-3.8428 3.4059-9.1701 4.3633-13.904 0.63326-3.7744 2.0789-7.6774 1.0013-11.504-0.52503-1.5029-1.6782-2.949-3.3184-3.248z" color="#000000" fill="#5e6717" fill-rule="evenodd"/>
  <path d="m340.75 246.55c-1.527 0.0522-3.13 0.22137-4.8 0.525 0.24221 1.2074 1.4996 2.3106 2.55 2.95-8.2291 10.373-6.5223 3.8052-9.85 2.3-21.531 16.552-4.7789 14.064 0.725 30.575 3.8029 11.408 29.64 19.928 34.9 5.9 6.2841-16.758-0.6194-43.033-23.525-42.25z" fill="#5e2f18"/>
  <path d="m330.69 264.64c-0.50547 0.73842 0.38396 1.6368 0.62811 2.3649 1.2974 2.4626 2.1359 5.2096 4.0002 7.3371 0.47606 0.71492 1.3687 1.1053 1.6631 1.9378 0.27409 0.80331-0.0375 1.6437-0.45323 2.3315-0.3344 0.79296-0.0804 1.6653-0.14674 2.4876-0.41558 1.0255-1.8789 0.36056-1.7775-0.62633-0.39401-1.3342-0.83088-2.6718-1.4979-3.8971-0.50016-0.78938-1.4986-0.92392-2.3516-0.80664-0.85627 0.12452-1.7588 0.25291-2.5174 0.68546-0.81229 0.45827-0.95574 1.5595-0.38603 2.2648 0.75857 1.0783 2.033 1.592 3.0972 2.3053 3.5367 2.1527 7.3111 4.0414 11.392 4.887 0.97454 0.0891 1.9903-0.18456 2.9297 0.18359 1.1638 1.6079 0.95223 3.8945 2.4376 5.3154 1.7841 2.1293 4.627 3.0406 7.3307 3.1202 1.0753 0.10809 2.1506 0.21617 3.2258 0.32426 1.6549-0.47762 2.5724-2.082 3.3223-3.5068 1.8933-3.4401 2.8094-7.3729 2.8418-11.288 0.16015-0.71003 0.32386-1.8353-0.56876-2.1164-0.84645-0.0698-1.2392 0.88765-1.318 1.5871-0.2656 2.1876-0.45049 4.3924-0.34961 6.5977-0.0577 1.122-0.53257 2.4892-1.7422 2.8008-1.2821 0.18847-2.2324-0.90736-2.9729-1.7902-1.3798-1.5398-3.1304-2.8938-3.8025-4.9266-0.26918-0.88305 0.23007-1.7336 0.42382-2.5562-0.14855-0.9511-1.7712-0.89922-1.7396 0.12412-0.53248 2.3252 0.14195 4.6758 0.68885 6.9301 0.22924 0.82918-0.23954 1.7358-1.0473 2.028-1.0527 0.47637-2.2088-0.19617-2.8472-1.0338-0.92952-1.3217-1.1173-2.9756-1.6453-4.4695-0.4215-1.4417-0.88153-2.8722-1.4152-4.2766-0.54437-0.74216-1.7002-0.41668-2.1914 0.22265-1.0931 1.183-2.2682 2.3555-3.7559 3.0293-0.93313 0.23813-1.7349-0.91839-1.2988-1.7383 0.51611-1.3878 1.5318-2.5156 2.0879-3.8867 0.33613-0.62186 0.57541-1.339 0.37849-2.0452-0.10962-0.81534-0.20341-1.6367-0.1695-2.4607 0.65152-0.74791-0.0957-1.8742-0.92222-2.0921-2.2532-0.91691-4.7252-1.294-6.8434-2.5368-0.91214-0.7078 0.6675-0.93691 0.79883-1.4141-0.63777-0.46723-1.5154-0.52992-2.1976-0.9578-0.40729-0.14416-0.85911-0.54361-1.2887-0.43868zm2.416 0.88281c-0.23199-0.0877-0.1747-0.0661 0 0zm0.3125 0.10937-0.13671-0.0469 0.13671 0.0469zm0.28906 0.0859-0.11718-0.0391 0.11718 0.0391zm1.1289 0.18945c-0.19998 0.25206 0.23698-0.21175 0 0zm-0.42579 0.01c0.22495-5e-3 -0.47757-0.074 0 0zm0.37305 4e-3c0.10017 0.0273 0-0.0675 0 0zm-0.0254 0.0469 2e-3 -8e-3 -2e-3 8e-3zm30.309 11.445-0.0254-0.0117 0.0254 0.0117z" fill="#8d4724" fill-rule="evenodd"/>
  <path d="m391.2 275.77c0.63094 0.25551 1.7366 0.27795 1.8484 1.1078-0.362 1.0644-1.6867 1.2949-2.2658 2.2048-0.52748 0.74357-0.47896 1.7032-0.85613 2.5062-0.23849 0.77923-2.0399 0.61122-1.9913 0.86244 0.61048-0.268 1.7631-0.17509 1.7444 0.70162-0.24505 1.2839-0.6142 2.5426-0.76339 3.8444-0.35994 2.0919-0.64049 4.1977-0.81474 6.3134 0.22156 0.80366 1.3289 0.73582 1.8063 0.21719 0.4684-0.68582 0.87997-1.4253 1.3691-2.1058 0.99969-1.4621 1.9169-3.1225 1.8325-4.952-0.0361-1.8655-0.42519-3.8592 0.45356-5.602 0.64534-1.3512 1.6071-2.5506 2.1058-3.9683 0.13486-0.85581-0.88262-1.1579-1.5557-1.0652-1.1459-0.0329-2.3018-0.0222-3.4271-0.27226 0.17135 0.0693 0.34271 0.13853 0.51406 0.2078zm-0.32969 2.85c-0.62187-0.18489-1.2438-0.36979-1.8656-0.55468 0.62187 0.18489 1.2438 0.36979 1.8656 0.55468zm-5.7328 5.4906c-0.31374 0.18394 0.21846-0.0486 0 0zm-0.42656 0.80937c0.22652-0.37833 0.16624-0.27764 0 0zm-0.23281 0.3922 0.0625-0.11407-0.0625 0.11407z" color="#000000" fill="#8d4724" fill-rule="evenodd"/>
  <path d="m383.93 290.93c-0.0306-0.25887-0.0946-0.80131-0.026-0.21984l0.0183 0.15473 8e-3 0.0651zm0.21289 1.6445c0.24688 1.6431 0.23755 3.3765 0.93352 4.9129 0.16269 0.64563 1.108 0.87494 0.96511 1.6209-0.70207 2.3114-0.92209 4.7492-1.7708 7.0219-0.71673 2.0635-1.661 4.0999-3.12 5.7471-1.1456 1.1289-3.207 1.1552-4.2848-0.0819-1.1422-1.3817-1.0134-3.2881-1.4627-4.9322-0.15746-0.81752-0.8078-1.4318-1.608-1.6188-1.3649-0.36874-2.7978-0.0819-4.175-0.32125-0.65195-0.11616-1.2915-0.92923-1.9461-0.30766-0.69403 0.61338-0.0843 1.4899 0.0857 2.1855 1.0189 3.0659 1.2378 6.3428 2.3655 9.379 0.9753 1.6791 3.194 2.2498 4.9863 1.7402 3.3967-0.62352 6.7967-1.9348 9.2734-4.418 1.7052-2.2447 2.6715-4.9226 3.9511-7.4092 0.40496-0.85948 0.7379-1.8862 0.29539-2.7981-0.4757-1.4681-0.87642-2.9634-1.4594-4.3943-0.36475-0.73439-1.3552-0.58765-1.8446-1.1371-0.69197-0.91921-0.64298-2.1391-0.89559-3.2164l-0.4707-3.3828c0.0605 0.47005 0.12109 0.9401 0.18164 1.4102z" color="#000000" fill="#8d4724" fill-rule="evenodd"/>
  <path d="m415.58 306.99c-1.316-1e-3 -2.7864 0.62764-3.2266 1.9625-0.40546 1.5315-0.38177 3.1531-0.83282 4.6797-0.52488 2.0722-2.1667 3.6898-4.0578 4.5875-1.4995 0.74651-3.1166 1.2416-4.5937 2.0328-0.90513 0.54533-1.8541 1.5344-1.5547 2.6828 0.34715 1.3493 1.2631 2.3961 2.3719 3.1984-1.1257 0.41169-2.1181 1.2-2.6984 2.2578-1.0524 1.7075-2.1988 3.3606-3.5453 4.8516-1.1548 1.2872-2.3746 2.5368-3.7297 3.6094-1.2674 0.79221-2.9356 0.23077-3.8828-0.80782-0.86163-0.91781-1.5628-1.9726-2.4047-2.9094l-3.4234-4.1484c-0.80324-0.43682-1.7099 0.86005-1.0187 1.4641 2.6303 3.4529 4.5242 7.4934 7.7484 10.472 2.0311 1.6566 4.7772 2.3585 7.3609 1.9719 1.3687-0.76972 1.6617-2.6835 3.1984-3.2359 1.5299-0.38199 3.138-0.42716 4.6203-0.99844 0.79672-0.9266 0.38648-2.2296 0.0922-3.2719-0.60888-2.1016-1.253-4.2327-1.2641-6.4406 0.13175-0.86026 0.98195-1.3431 1.8062-1.3453 0.31509 0.10336 0.63499 0.19145 0.96094 0.25312 0.20077 0.12945 0.37416 0.3048 0.49532 0.53593 0.78685 1.3665 1.3659 2.8362 2.0031 4.275 1.0154 0.19255 0.68692-1.1647 0.52345-1.739-0.0705-1.1415 0.0785-2.3414 0.47655-3.4375 0.0834-0.11695 0.13342-0.24738 0.16407-0.3828 0.41089-0.9582 1.0145-1.8228 1.8578-2.4656 1.3409-0.82512 3.1716-0.91072 4.1188-2.3078 1.1293-1.8866 1.0886-4.1759 1.7922-6.2156 0.43971-1.4577 1.1739-2.8422 2.2438-3.9359 0.89366-0.28762 0.71299-1.5746-0.13594-1.7922-0.70405-0.60753-1.6578-0.66712-2.5375-0.73593-0.64845-0.0678-1.3188-0.23684-1.9719-0.16875 0.63755-0.32669 1.397-0.56201 1.6766-1.2297 0.078-0.83066-0.85697-1.2583-1.564-1.2547-0.35487-0.0278-0.71295-4e-3 -1.0688-0.0109z" color="#000000" fill="#8d4724" fill-rule="evenodd"/>
  <path d="m415.04 310.66c0.0225 0.12373 0.0858 0.2478 0.24374 0.36563 0.94827 0.25997 2.087-0.30312 2.925 0.38125 0.84128 0.82842 0.49262 2.1181 0.22813 3.1188-0.56164 1.8279-1.0889 3.6906-1.9906 5.3859-0.63426 1.1055-1.7016 1.8855-2.8734 2.3453-1.349 0.58436-2.5264 1.6424-3.0812 3.0109-0.71351-0.91125-1.7295-1.7532-1.7016-2.9984 0.16463-1.2473 1.2719-2.0467 2.0359-2.9469 1.5549-1.5767 2.5503-3.629 3.0219-5.7797 0.26934-0.97678 0.57691-2.0568 1.1922-2.8828z" color="#000000" fill="#5e2f18" fill-rule="evenodd"/>
  <path d="m442.62 340.26c-1.8961 1.0688-4.1449 1.0973-6.2617 1.0234-0.83207 0.0997-1.6142 0.91722-1.4356 1.7852 0.15821 1.9378-1.1445 3.7153-2.7937 4.6069-1.4916 1.0605-3.1289 1.889-4.7317 2.7642-0.8557 0.26235-1.7456 0.37166-2.627 0.50977-0.73059 0.50046-0.73611 1.59-0.30664 2.291 0.34176 1.0468 0.0326 2.155-0.3379 3.1484-0.25656 1.5682-0.0422 3.1588 0.19532 4.7148 0.93515 0.11453 0.37803 1.7176-0.44486 1.3465-0.84398-0.23244-1.8258-0.53992-2.2436-1.3874-0.69664-1.4866-1.0094-3.1752-2.0186-4.5079-0.50288-0.6842-1.3398-1.2235-2.2168-0.98047-0.93599 0.20351-1.7255 1.0544-1.6936 2.04-0.24445 2.3386 0.033 4.7091-0.35723 7.0362-0.43609 0.95271-1.9449 1.0385-2.5274 0.1875-2.1806-2.1226-4.076-4.5096-6.0371-6.8301-0.78071-0.55708-1.8925 0.6754-1.252 1.3945 2.4049 3.2232 4.821 6.438 7.248 9.6445 1.7204 1.6283 4.1547 1.9953 6.3867 2.4297 2.6372-0.0448 5.1815-0.81619 7.7358-1.3884 1.0453-0.23633 1.8965-1.0398 2.2232-2.0569 0.87823-2.0156 1.427-4.1529 2.2266-6.1973 0.16577-0.78596 1.044-1.1198 1.745-0.81662 1.6197 0.52381 2.421 2.1476 3.2257 3.5119-0.71676-1.4377-1.658-3.0067-3.2695-3.541-0.75749-0.29901-1.5699-0.10952-2.3496-0.21484-0.57497-0.0422 0.3385-0.5995-0.20899-0.31446-0.61155 0.27687-2.1936 0.065-1.6133-0.87304 0.74678-0.30668 1.6092-0.26389 2.294-0.77109 0.98338-0.38355 2.0931 0.065 3.042-0.45547 1.4854-0.72538 2.6156-2.4926 2.1289-4.1621-0.6209-1.5092-2.3793-2.2596-2.8223-3.877-0.61951-2.4008 1.7153-4.9624 4.163-4.5856 0.92434 0.0683 1.9492 0.47631 2.8077-0.0608 1.2011-1.0656 1.6166-2.7066 2.6797-3.8828 0.34573-0.48434 0.31835-1.7304-0.55273-1.5312zm-11.895 20.117c0.2132-0.0881 0.28542-0.18863 0.0234-0.0143l-0.0234 0.0143zm-2.1621-4.7266c0.93321 0.21376 0.65863 1.8753-0.29687 1.7774-1.3145 0.4738-2.1614 1.6515-3.0039 2.6973 0.76335 0.55581-0.752 1.7509-0.73437 0.57422-0.21361-1.2723 0.28166-2.571 0.97664-3.616 0.70733-0.92353 1.8749-1.5608 3.0585-1.4328zm4.332 3.8672 0.11329-0.0391-0.11329 0.0391zm-1.3242 0.4082c-0.36947 0.13893-0.88881 0.48284-0.17328 0.13375 0.2176-0.0845 0.81105-0.34854 0.22365-0.14838l-0.0504 0.0146zm-4.0918 0.89063c-0.19938 0.42323-0.0577-0.1195 0 0z" color="#000000" fill="#8d4724" fill-rule="evenodd"/>
  <path d="m454.32 375.24c-0.97581 0.7527-1.7274 1.7512-2.6257 2.5906-0.63477 0.63182-1.3063 1.2266-2.0286 1.757-2.1671 0.71043-4.5992 0.66855-6.5537 1.9698-2.724 1.8466-5.4289 3.733-8.2901 5.3661-0.8884-0.0733-1.5389 1.1269-0.98437 1.8281 1.384 0.51109 2.9275 0.49417 4.2461 1.1973 1.6293 3.0188 0.64598 6.7316 2.3095 9.7381 0.97926 1.7674 2.6935 2.9787 4.4151 3.9533 0.81261 0.33563 1.7703-0.34854 1.775-1.2156 0.17937-1.0907 0.0753-2.2057 0.17423-3.3039 0.0293-0.8221 0.18546-1.6522 0.0371-2.4707-0.72826-1.112-1.6666-2.0618-2.5703-3.0293-1.0133-0.41912 0.40073-1.963 0.93482-0.94953 1.3795 1.1708 3.3 1.1052 4.9979 1.2876 1.822 0.11335 3.7892 0.42345 5.1639 1.7349 0.57326 0.4754 1.4199 1.0395 2.1515 0.54614 0.91056-0.82554 0.68857-2.1763 0.63544-3.2724-0.10979-1.3642-0.25232-2.7272-0.27216-4.0967 0.52158-1.3624 2.0321-1.8151 3.1113-2.6191 1.5664-1.0188 3.4168-1.8376 4.3945-3.5195 0.6208-0.80645 1.1968-1.7576 2.1875-2.1484 1.026-0.17756 1.4946 0.9239 1.5684 1.6367 0.79262 0.36766 0.99186-1.1364 0.40625-1.4551-0.22296-1.013-0.43526-2.0289-0.71093-3.0293-0.5478-0.8324-1.9087-0.89829-2.5449-0.13672-4.222 3.3626-8.444 6.7253-12.666 10.088-1.325 0.0196-2.8304-0.14698-3.9122 0.78763-1.3546 0.88065-2.7507 1.731-3.8984 2.8823-0.95109 0.62333-2.1648 0.0412-2.877-0.68359-1.6482-1.3967-3.0998-3.1562-3.7246-5.252-0.0253-1.0623 1.643-1.1942 1.8497-0.1512 0.26146 0.54793 0.73732 1.4015 1.4686 1.1065 1.0157-0.48055 1.1264-1.7861 1.9556-2.4663 0.86811-0.93415 2.3519-1.1757 3.4742-0.56716 0.72156 0.17648 1.5477 0.97367 2.2637 0.50975 0.86263-0.87903 1.8351-1.6599 2.5544-2.6749 0.95916-1.211 1.5573-2.6673 1.8302-4.182 0.0531-0.4545 0.52911-1.7696-0.24593-1.7564zm-12.602 12.15c0.18102-0.3908 0.14643-0.3161 0 0zm-0.11915 0.60547 8e-3 -0.13281-8e-3 0.13281z" color="#000000" fill="#8d4724" fill-rule="evenodd"/>
  <path d="m441.77 352.6c-4.0991 2.3356-5.2996 7.197-7.7156 10.916-1.5903 2.9597-4.1574 5.5048-4.8245 8.885-0.43225 1.1714 0.70238 1.8047 1.6743 2.0001 1.2386 0.18199 1.2312 1.4687 0.11197 1.9004-2.6243 1.7478-6.1155 1.0621-8.6461-0.51971-1.3878-0.91266-3.1486-1.0682-4.6397-0.30717-0.93559 0.50674-2.2076 0.54805-2.8978 1.3972 0.30533 0.66632 1.8347-0.60892 2.3926-0.96011 1.6346-0.84979 3.5476-0.23338 4.924 0.81647 4.8792 2.7269 10.682 1.9454 15.968 1.1999 2.7853-0.62828 5.974-1.4182 7.6815-3.9108 0.92825-2.2209-1.3431-4.0632-1.3485-6.2507-0.34945-3.6574 1.556-7.1846 0.783-10.852-0.34799-1.737-1.2275-3.8986-3.1367-4.3164l-0.22239 1e-3 -0.10379 6.3e-4zm10.209 13.504c-2.6828 1.1336-3.1342 4.326-3.9043 6.7871-1.248 3.1082-4.7751 4.0382-7.6406 5.0352 0.1844 0.10153 2.1454-0.68552 2.9243-0.96206 2.7924-1.0524 5.5571-3.2149 5.9117-6.3739 0.40672-1.5711 1.6372-2.7418 2.8965-3.6543 0.19088-0.25787 0.41652-1.0233-0.1875-0.83203zm-38.098 10.631c0.32229-0.0627 0.28252-0.36287 0 0zm-0.87304 0.52735c0.505-0.28751 0.54586-0.31077 0 0zm-1.209 0.92968c0.89234-0.75251 0.9346-0.78815 0 0zm0.89063 0.33789c0.0962 0.77203 0.23409 0.10213 0 0zm23.914 0.33399c-1.3621-0.0609 0.53431 0.34436 0 0zm-24.422 0.58398 0.0605-0.14453-0.0605 0.14453z" color="#000000" fill="#5e6717" fill-rule="evenodd"/>
  <path d="m423.24 320.9-0.0586-0.14843 0.0586 0.14843zm-0.22071 1.4414c-3.2809 2.7167-5.6169 6.4726-6.8848 10.52-1.5383 1.9079-3.5701 3.3126-5.4238 4.8867 0.14192 3.2936 1.5456 6.7255 0.16602 9.9336-1.5847 2.8282-6.0547 3.4742-8.3379 1.166-1.4816-2.1906-2.2923-5.0274-4.707-6.4453-1.2363 0.0962 0.31595 1.5791 0.29688 2.2637-0.4159 1.1466-1.9857 0.64805-2.9185 0.97479-3.1566 0.36566-6.3284 0.73138-9.4058 1.5526 3.9429 0.29555 7.7536-1.1431 11.672-1.1579 1.0409-0.11149 2.0286 0.57215 2.1174 1.6481 0.13925 1.8077-0.90178 3.6702-0.17773 5.4394 1.1984 1.5293 3.4284 1.9458 5.2754 1.707 3.3569-0.88356 6.2028-3.3494 7.8633-6.3691 2.1396-1.634 5.0605-1.9349 6.9961-3.877 0.69389-2.4742 0.88304-5.292 2.7402-7.248 1.103 0.79836-0.38922 1.8506-0.51953 2.7598-1.2576 3.9981 0.46541 8.4924 3.5034 11.211 0.56031 0.22548-1.3375-1.3264-1.5503-1.9258-1.9764-2.7214-2.7412-6.8006-0.52735-9.6152 2.1049-3.0726 5.1661-5.5107 6.5644-9.043-0.16883-1.3935-2.193-1.1854-2.7686-0.17298-3.388 3.193-6.5842 6.8226-8.1337 11.29-0.30684 1.3352-2.167 2.3221-3.2656 1.293-1.1235-1.7394 0.0776-3.8262 1.0149-5.3654 2.2191-3.7951 4.9155-7.4385 5.9549-11.786 0.52838-1.3362 1.1398-2.6974 1.1298-4.163l-0.67383 0.52344z" fill="#c16200"/>
 </g>
</svg>
